<svg xmlns="http://www.w3.org/2000/svg" width="760" height="680">
<rect width="100%" height="100%" fill="white"/>
<text x="380" y="34" text-anchor="middle" font-family="Arial" font-size="21">Frozen speed model on Waymo validation</text>
<text x="380" y="56" text-anchor="middle" font-family="Arial" font-size="13">MAE 0.17 m/s, RMSE 0.26 m/s, bias -0.03 m/s, n=25</text>
<line x1="90" y1="600" x2="725" y2="600" stroke="#333"/>
<line x1="90" y1="70" x2="90" y2="600" stroke="#333"/>
<line x1="90.0" y1="600.0" x2="725.0" y2="70.0" stroke="#777" stroke-dasharray="6 4"/>
<text x="407.5" y="660" text-anchor="middle" font-family="Arial" font-size="15">Waymo ground truth speed (m/s)</text>
<text transform="translate(22 335.0) rotate(-90)" text-anchor="middle" font-family="Arial" font-size="15">Estimated speed (m/s)</text>
<circle cx="380.8" cy="289.4" r="4" fill="#0072B2" fill-opacity="0.70"/>
<circle cx="348.6" cy="395.1" r="4" fill="#0072B2" fill-opacity="0.70"/>
<circle cx="427.0" cy="326.8" r="4" fill="#0072B2" fill-opacity="0.70"/>
<circle cx="434.7" cy="251.0" r="4" fill="#0072B2" fill-opacity="0.70"/>
<circle cx="489.7" cy="263.1" r="4" fill="#0072B2" fill-opacity="0.70"/>
<circle cx="503.7" cy="263.1" r="4" fill="#0072B2" fill-opacity="0.70"/>
<circle cx="485.4" cy="268.5" r="4" fill="#0072B2" fill-opacity="0.70"/>
<circle cx="447.0" cy="281.3" r="4" fill="#0072B2" fill-opacity="0.70"/>
<circle cx="403.5" cy="362.3" r="4" fill="#0072B2" fill-opacity="0.70"/>
<circle cx="340.0" cy="380.8" r="4" fill="#0072B2" fill-opacity="0.70"/>
<circle cx="449.0" cy="298.3" r="4" fill="#0072B2" fill-opacity="0.70"/>
<circle cx="439.0" cy="287.5" r="4" fill="#0072B2" fill-opacity="0.70"/>
<circle cx="410.6" cy="300.8" r="4" fill="#0072B2" fill-opacity="0.70"/>
<circle cx="397.9" cy="332.1" r="4" fill="#0072B2" fill-opacity="0.70"/>
<circle cx="364.8" cy="354.3" r="4" fill="#0072B2" fill-opacity="0.70"/>
<circle cx="362.2" cy="351.5" r="4" fill="#0072B2" fill-opacity="0.70"/>
<circle cx="554.7" cy="238.0" r="4" fill="#0072B2" fill-opacity="0.70"/>
<circle cx="443.8" cy="304.3" r="4" fill="#0072B2" fill-opacity="0.70"/>
<circle cx="427.0" cy="302.7" r="4" fill="#0072B2" fill-opacity="0.70"/>
<circle cx="403.2" cy="383.6" r="4" fill="#0072B2" fill-opacity="0.70"/>
<circle cx="483.4" cy="279.9" r="4" fill="#0072B2" fill-opacity="0.70"/>
<circle cx="522.6" cy="305.3" r="4" fill="#0072B2" fill-opacity="0.70"/>
<circle cx="567.3" cy="288.9" r="4" fill="#0072B2" fill-opacity="0.70"/>
<circle cx="393.1" cy="342.4" r="4" fill="#0072B2" fill-opacity="0.70"/>
<circle cx="681.2" cy="262.1" r="4" fill="#0072B2" fill-opacity="0.70"/>
</svg>